#!OML:ASF H:\Punching\Project 1\Capture day 1\Session 1\female.ASF
:FULLY-SPECIFIED
:DEGREES
966
root 0.0796958 11.8624 0.314054 17.6256 7.6793 5.79277
lowerback 18.4547 1.93732 -1.40053
upperback -0.736976 2.46756 1.79954
thorax -11.3594 1.30773 2.09273
lowerneck -10.9233 -6.05191 4.07284
upperneck 12.2706 -9.27044 3.18254
head 5.47341 -4.07989 -0.380452
rclavicle -5.08889e-014 -1.90833e-014
rhumerus 46.7452 -18.8372 -56.3803
rradius 57.2072
rwrist -17.6867
rhand -12.2905 -23.4906
rfingers 7.12502
rthumb 13.7771 -53.0144
lclavicle -5.08889e-014 -1.90833e-014
lhumerus 28.8131 -42.3176 74.188
lradius 132.177
lwrist 10.3686
lhand -23.2338 9.95296
lfingers 7.12502
lthumb 3.21736 39.9084
rfemur -26.4459 -33.5545 -13.0114
rtibia 92.5518
rfoot -36.6745 1.15183
rtoes -40.4209
lfemur -82.7978 -0.209903 -20.1883
ltibia 78.903
lfoot -11.3101 -4.49702
ltoes -3.44757
967
root 0.0735272 11.8908 0.316002 17.7333 7.36204 5.578
lowerback 18.4618 1.76871 -1.56365
upperback -0.713658 2.21399 1.8524
thorax -11.3326 1.20024 2.31576
lowerneck -10.9791 -5.68176 4.4364
upperneck 12.2981 -8.80005 2.92367
head 5.46573 -3.85257 -0.482839
rclavicle -3.57812e-014 1.11319e-014
rhumerus 44.3195 -17.3373 -55.7916
rradius 63.8824
rwrist -22.1466
rhand -13.2714 -24.7443
rfingers 7.12502
rthumb 12.8316 -54.3299
lclavicle -3.57812e-014 1.11319e-014
lhumerus 28.7527 -42.2455 74.3295
lradius 132.312
lwrist 10.653
lhand -23.3518 10.0204
lfingers 7.12502
lthumb 3.10334 39.9775
rfemur -26.8807 -33.3476 -12.4754
rtibia 92.2868
rfoot -36.5448 1.18562
rtoes -40.2257
lfemur -82.7528 -0.17051 -19.7304
ltibia 78.746
lfoot -11.2952 -4.0418
ltoes -3.62906
968
root 0.0717024 11.9218 0.317957 17.8444 6.93582 5.34388
lowerback 18.4698 1.59016 -1.7436
upperback -0.668259 1.94472 1.91796
thorax -11.2794 1.0862 2.56694
lowerneck -11.0547 -5.27131 4.7818
upperneck 12.2918 -8.2679 2.63003
head 5.45342 -3.59979 -0.589028
rclavicle 2.8625e-014 9.54166e-015
rhumerus 41.9109 -15.8221 -55.4987
rradius 70.9433
rwrist -27.2226
rhand -14.9969 -25.9918
rfingers 7.12502
rthumb 11.1678 -55.6746
lclavicle 2.8625e-014 9.54166e-015
lhumerus 28.7593 -42.0933 74.4503
lradius 132.448
lwrist 10.9721
lhand -23.4691 10.1426
lfingers 7.12502
lthumb 2.99004 40.1014
rfemur -27.3788 -33.0926 -11.9274
rtibia 91.9739
rfoot -36.4124 1.25136
rtoes -40.0505
lfemur -82.681 -0.112909 -19.2286
ltibia 78.597
lfoot -11.3218 -3.48449
ltoes -3.88538
969
root 0.0737211 11.9552 0.320025 17.9671 6.39487 5.08881
lowerback 18.4775 1.41284 -1.93587
upperback -0.611844 1.67469 1.98695
thorax -11.2116 0.972014 2.8291
lowerneck -11.129 -4.83452 5.10825
upperneck 12.2466 -7.69468 2.32611
head 5.43293 -3.33022 -0.692183
rclavicle 1.51076e-014 -3.18055e-015
rhumerus 39.5076 -14.3821 -55.5082
rradius 78.123
rwrist -32.4086
rhand -16.8847 -26.9685
rfingers 7.12502
rthumb 9.34658 -56.7413
lclavicle 1.51076e-014 -3.18055e-015
lhumerus 28.8552 -41.874 74.5287
lradius 132.565
lwrist 11.3244
lhand -23.589 10.3112
lfingers 7.12502
lthumb 2.87428 40.2716
rfemur -27.9481 -32.7807 -11.3514
rtibia 91.6122
rfoot -36.2905 1.31898
rtoes -39.9042
lfemur -82.5884 -0.0198994 -18.6881
ltibia 78.4537
lfoot -11.3864 -2.84178
ltoes -4.17689
970
root 0.0789452 11.991 0.322357 18.1069 5.74618 4.80977
lowerback 18.4862 1.24483 -2.13003
upperback -0.557606 1.41577 2.04842
thorax -11.1448 0.862471 3.08072
lowerneck -11.174 -4.38734 5.43404
upperneck 12.1607 -7.10466 2.02457
head 5.39886 -3.05411 -0.79229
rclavicle -4.73108e-014 3.18055e-015
rhumerus 37.0703 -13.0765 -55.7949
rradius 85.1963
rwrist -37.3039
rhand -18.3985 -27.5595
rfingers 7.12502
rthumb 7.88574 -57.3925
lclavicle -4.73108e-014 3.18055e-015
lhumerus 29.0295 -41.6357 74.5572
lradius 132.669
lwrist 11.7069
lhand -23.7154 10.5163
lfingers 7.12502
lthumb 2.75226 40.4783
rfemur -28.5819 -32.4082 -10.7346
rtibia 91.2002
rfoot -36.1895 1.36747
rtoes -39.7836
lfemur -82.479 0.118132 -18.1112
ltibia 78.3136
lfoot -11.4825 -2.13555
ltoes -4.49971
971
root 0.086997 12.0288 0.325337 18.2736 5.00186 4.51274
lowerback 18.4878 1.08703 -2.32979
upperback -0.516598 1.16799 2.09735
thorax -11.087 0.757934 3.3185
lowerneck -11.1809 -3.93932 5.77029
upperneck 12.0521 -6.51318 1.72891
head 5.35505 -2.77739 -0.89145
rclavicle -5.1684e-015 1.90833e-014
rhumerus 34.5724 -11.9149 -56.317
rradius 92.0044
rwrist -41.6367
rhand -19.2685 -27.7773
rfingers 7.12502
rthumb 7.046 -57.64
lclavicle -5.1684e-015 1.90833e-014
lhumerus 29.2628 -41.4038 74.5379
lradius 132.762
lwrist 12.1043
lhand -23.8648 10.7552
lfingers 7.12502
lthumb 2.60789 40.719
rfemur -29.2699 -31.9846 -10.0809
rtibia 90.739
rfoot -36.1193 1.37583
rtoes -39.6916
lfemur -82.3614 0.302362 -17.5106
ltibia 78.1749
lfoot -11.6033 -1.38826
ltoes -4.84261
